HIERARCHY
ROOT Hips
{
	OFFSET 0.000000 0.000000 0.000000
	CHANNELS 6 Xposition Yposition Zposition Zrotation Yrotation Xrotation 
	JOINT LHipJoint
	{
		OFFSET 0.000000 0.000000 0.000000
		CHANNELS 3 Zrotation Yrotation Xrotation
		JOINT LeftUpLeg
		{
			OFFSET 1.363060 -1.794630 0.839290
			CHANNELS 3 Zrotation Yrotation Xrotation
			JOINT LeftLeg
			{
				OFFSET 2.448110 -6.726130 0.000000
				CHANNELS 3 Zrotation Yrotation Xrotation
				JOINT LeftFoot
				{
					OFFSET 2.562200 -7.039590 0.000000
					CHANNELS 3 Zrotation Yrotation Xrotation
					JOINT LeftToeBase
					{
						OFFSET 0.157640 -0.433110 2.322550
						CHANNELS 3 Zrotation Yrotation Xrotation
						End Site
						{
							OFFSET 0.000000 0.000000 0.000000
						}
					}
				}
			}
		}
	}
	JOINT RHipJoint
	{
		OFFSET 0.000000 0.000000 0.000000
		CHANNELS 3 Zrotation Yrotation Xrotation
		JOINT RightUpLeg
		{
			OFFSET -1.305520 -1.794630 0.839290
			CHANNELS 3 Zrotation Yrotation Xrotation
			JOINT RightLeg
			{
				OFFSET -2.542530 -6.985550 0.000000
				CHANNELS 3 Zrotation Yrotation Xrotation
				JOINT RightFoot
				{
					OFFSET -2.568260 -7.056230 0.000000
					CHANNELS 3 Zrotation Yrotation Xrotation
					JOINT RightToeBase
					{
						OFFSET -0.164730 -0.452590 2.363150
						CHANNELS 3 Zrotation Yrotation Xrotation
						End Site
						{
							OFFSET 0.000000 0.000000 0.000000
						}
					}
				}
			}
		}
	}
	JOINT LowerBack
	{
		OFFSET 0.000000 0.000000 0.000000
		CHANNELS 3 Zrotation Yrotation Xrotation
		JOINT Spine
		{
			OFFSET 0.028270 2.035590 -0.193380
			CHANNELS 3 Zrotation Yrotation Xrotation
			JOINT Spine1
			{
				OFFSET 0.056720 2.048850 -0.042750
				CHANNELS 3 Zrotation Yrotation Xrotation
				JOINT Neck
				{
					OFFSET 0.000000 0.000000 0.000000
					CHANNELS 3 Zrotation Yrotation Xrotation
					JOINT Neck1
					{
						OFFSET -0.054170 1.746240 0.172020
						CHANNELS 3 Zrotation Yrotation Xrotation
						JOINT Head
						{
							OFFSET 0.104070 1.761360 -0.123970
							CHANNELS 3 Zrotation Yrotation Xrotation
							End Site
							{
								OFFSET 0.000000 0.000000 0.000000
							}
						}
					}
				}
				JOINT LeftShoulder
				{
					OFFSET 0.000000 0.000000 0.000000
					CHANNELS 3 Zrotation Yrotation Xrotation
					JOINT LeftArm
					{
						OFFSET 3.362410 1.200890 -0.311210
						CHANNELS 3 Zrotation Yrotation Xrotation
						JOINT LeftForeArm
						{
							OFFSET 4.983000 -0.000000 -0.000000
							CHANNELS 3 Zrotation Yrotation Xrotation
							JOINT LeftHand
							{
								OFFSET 3.483560 -0.000000 -0.000000
								CHANNELS 3 Zrotation Yrotation Xrotation
								JOINT LeftFingerBase
								{
									OFFSET 0.000000 0.000000 0.000000
									CHANNELS 3 Zrotation Yrotation Xrotation
									JOINT LeftHandIndex1
									{
										OFFSET 0.715260 -0.000000 -0.000000
										CHANNELS 3 Zrotation Yrotation Xrotation
										End Site
										{
											OFFSET 0.000000 0.000000 0.000000
										}
									}
								}
								JOINT LThumb
								{
									OFFSET 0.000000 0.000000 0.000000
									CHANNELS 3 Zrotation Yrotation Xrotation
									End Site
									{
										OFFSET 0.000000 0.000000 0.000000
									}
								}
							}
						}
					}
				}
				JOINT RightShoulder
				{
					OFFSET 0.000000 0.000000 0.000000
					CHANNELS 3 Zrotation Yrotation Xrotation
					JOINT RightArm
					{
						OFFSET -3.136600 1.374050 -0.404650
						CHANNELS 3 Zrotation Yrotation Xrotation
						JOINT RightForeArm
						{
							OFFSET -5.241900 -0.000000 -0.000000
							CHANNELS 3 Zrotation Yrotation Xrotation
							JOINT RightHand
							{
								OFFSET -3.444170 -0.000000 -0.000000
								CHANNELS 3 Zrotation Yrotation Xrotation
								JOINT RightFingerBase
								{
									OFFSET 0.000000 0.000000 0.000000
									CHANNELS 3 Zrotation Yrotation Xrotation
									JOINT RightHandIndex1
									{
										OFFSET -0.622530 -0.000000 -0.000000
										CHANNELS 3 Zrotation Yrotation Xrotation
										End Site
										{
											OFFSET 0.000000 0.000000 0.000000
										}
									}
								}
								JOINT RThumb
								{
									OFFSET 0.000000 0.000000 0.000000
									CHANNELS 3 Zrotation Yrotation Xrotation
									End Site
									{
										OFFSET 0.000000 0.000000 0.000000
									}
								}
							}
						}
					}
				}
			}
		}
	}
}
MOTION
Frames: 4
Frame Time: 0.008333
2.050528 17.069936 -1.377152 -15.693340 -88.978932 11.169824 -3.796333 -5.524740 -2.882559 0.831481 17.116072 -32.432528 9.854600 16.954150 54.302097 6.064207 -1.575457 24.617895 0.838400 -5.840700 -16.323000 3.033142 5.079004 -2.955385 -2.297179 -16.123369 -30.134042 -9.444450 -16.047574 51.846437 -3.328787 -1.113776 18.959536 -0.916000 6.098200 -17.069500 -0.403469 0.067165 15.545347 0.502006 0.246688 -2.202012 0.337663 -0.113058 0.505828 -5.683099 -2.132373 -10.387917 7.275589 -3.394212 9.545950 3.469800 -1.323200 2.980500 -5.586446 -12.784150 1.005199 -37.932502 -48.809842 16.347765 60.865888 -37.988757 -46.762475 2.967897 -2.748883 26.527174 -10.199918 -17.113100 3.912800 -7.125000 0.000000 0.000000 -27.072300 14.660700 21.995200 7.999897 12.508738 3.130471 34.874602 42.863411 12.692608 -71.438034 44.608374 -58.152990 0.476481 5.873557 6.653116 -3.081919 -45.970772 2.313500 7.125000 0.000000 0.000000 67.809500 -72.012900 -49.426700 
2.053999 17.071971 -1.374878 -11.934055 -89.008184 7.422531 -3.792085 -5.529545 -2.866415 0.741404 17.095125 -32.431096 9.804490 16.950632 54.275210 6.184358 -1.813616 24.782036 0.757500 -5.558600 -15.508800 3.041638 5.081991 -2.968462 -2.381329 -16.127945 -30.126105 -9.441743 -16.033734 51.803579 -3.330921 -1.121363 19.001613 -0.927100 6.134000 -17.173800 -0.497109 0.075700 15.512943 0.500465 0.246562 -2.201459 0.401894 -0.107623 0.513118 -5.736339 -2.123073 -10.376944 7.304098 -3.383964 9.554577 3.494900 -1.318200 2.982500 -5.594531 -12.782726 1.015006 -37.935320 -48.777198 16.309037 60.908381 -38.025374 -46.847769 2.970914 -2.749641 26.457750 -10.399094 -17.122965 3.970900 -7.125000 0.000000 0.000000 -27.187700 14.650400 22.123800 8.002046 12.515268 3.109489 34.789685 42.792785 12.695393 -71.446679 44.640722 -58.166412 0.468337 5.878562 6.671088 -3.022239 -45.967430 2.258700 7.125000 0.000000 0.000000 67.853000 -71.988300 -49.437000 
2.057948 17.073407 -1.376434 -12.173421 -89.012063 7.664822 -3.790985 -5.531898 -2.859332 0.750262 17.101729 -32.431840 9.771310 16.936843 54.253205 6.317696 -2.070566 24.884586 0.726700 -5.446800 -15.187400 3.053672 5.086769 -2.967799 -2.366858 -16.102022 -30.129477 -9.432519 -16.027687 51.748344 -3.248245 -1.289189 19.028592 -0.958700 6.234800 -17.467300 -0.508517 0.085414 15.533253 0.499427 0.257674 -2.211719 0.406809 -0.098869 0.446308 -5.759845 -2.133364 -10.262378 7.346952 -3.414343 9.533464 3.530100 -1.336000 2.947300 -5.606041 -12.777283 1.038545 -38.002489 -48.713368 16.357070 60.940655 -38.077971 -46.895778 2.965305 -2.742926 26.483313 -10.379187 -17.141044 3.968800 -7.125000 0.000000 0.000000 -27.167800 14.629700 22.116700 8.003812 12.497959 3.112609 34.826379 42.702046 12.717341 -71.497782 44.688644 -58.232455 0.459608 5.870829 6.692105 -3.013441 -45.892828 2.242100 7.125000 0.000000 0.000000 67.624700 -71.952500 -49.190500 
2.062257 17.075681 -1.375716 -15.032106 -89.002680 10.515070 -3.799556 -5.532439 -2.866374 0.804773 17.127641 -32.432450 9.776987 16.929414 54.237891 6.316442 -2.059981 24.859026 0.730300 -5.460100 -15.225700 3.054347 5.089269 -2.962061 -2.310106 -16.071834 -30.124802 -9.409500 -16.023141 51.695813 -3.223522 -1.342818 19.080466 -0.959800 6.238200 -17.477200 -0.450259 0.079240 15.554397 0.505902 0.256287 -2.210241 0.393624 -0.103515 0.438665 -5.743688 -2.169683 -10.243583 7.318888 -3.459929 9.538570 3.509200 -1.359900 2.948800 -5.601708 -12.785033 1.037990 -37.996040 -48.718515 16.362230 60.881598 -38.051432 -46.813613 2.965104 -2.741794 26.507969 -10.237986 -17.145693 3.930500 -7.125000 0.000000 0.000000 -27.084800 14.626800 22.031100 8.008937 12.500481 3.109763 34.813202 42.723241 12.714358 -71.417450 44.652420 -58.143944 0.453756 5.869064 6.746037 -2.838502 -45.785038 2.092000 7.125000 0.000000 0.000000 67.417600 -71.845900 -48.881000 
